<svg xmlns="http://www.w3.org/2000/svg" width="34.223" height="44" viewBox="0 0 34.223 44">
  <g id="_01-home" data-name="01-home" transform="translate(-60 -4)">
    <g id="linear_color" data-name="linear color" transform="translate(60 4)">
      <path id="Path_11071" data-name="Path 11071" d="M77.111,4A17.131,17.131,0,0,0,60,21.111c0,4.583,2.777,10.469,8.253,17.493a93.047,93.047,0,0,0,8.134,9.105,1.048,1.048,0,0,0,1.448,0A93.048,93.048,0,0,0,85.969,38.6c5.476-7.024,8.253-12.91,8.253-17.493A17.131,17.131,0,0,0,77.111,4Zm0,41.478C74.019,42.361,62.1,29.778,62.1,21.111a15.016,15.016,0,0,1,30.032,0C92.127,29.778,80.2,42.361,77.111,45.478Z" transform="translate(-60 -4)"/>
      <path id="Path_11072" data-name="Path 11072" d="M128.222,60a12.222,12.222,0,1,0,12.222,12.222A12.236,12.236,0,0,0,128.222,60Zm0,22.349a10.127,10.127,0,1,1,10.127-10.127,10.127,10.127,0,0,1-10.127,10.127Z" transform="translate(-111.111 -55.111)"/>
      <path id="Path_11073" data-name="Path 11073" d="M173.117,107.257l-7.683-6.984a1.048,1.048,0,0,0-1.409,0l-7.683,6.984a1.048,1.048,0,0,0,.7,1.823H158.1v5.238a1.048,1.048,0,0,0,1.048,1.048h3.841a1.048,1.048,0,0,0,1.048-1.048v-3.143h1.4v3.143a1.048,1.048,0,0,0,1.048,1.048h3.841a1.048,1.048,0,0,0,1.048-1.048V109.08h1.048a1.048,1.048,0,0,0,.7-1.823Zm-3.848.775v5.238h-1.746v-3.143a1.048,1.048,0,0,0-1.048-1.048h-3.492a1.048,1.048,0,0,0-1.048,1.048v3.143H160.19v-5.238a1.048,1.048,0,0,0-.563-.929l5.1-4.639,5.1,4.639A1.048,1.048,0,0,0,169.27,108.032Z" transform="translate(-147.619 -91.619)"/>
    </g>
  </g>
</svg>
