<svg id="cogwheels" xmlns="http://www.w3.org/2000/svg" width="77.836" height="77.836" viewBox="0 0 77.836 77.836">
  <g id="cogwheels-2" data-name="cogwheels">
    <g id="Group_2059" data-name="Group 2059">
      <g id="Group_2058" data-name="Group 2058">
        <path id="Path_2595" data-name="Path 2595" d="M77.836,57.75V45.2H71.849A21.126,21.126,0,0,0,70.321,41.5l4.231-4.232-7.2-7.2a16.3,16.3,0,0,0,.363-2.448H70.3V25.107H67.729a16.2,16.2,0,0,0-.751-3.809l2.373-.983L68.389,18l-2.38.986a16.433,16.433,0,0,0-2.157-3.225l1.823-1.823L63.9,12.158,62.077,13.98a16.341,16.341,0,0,0-3.225-2.157l.987-2.38-2.32-.962-.983,2.373a16.308,16.308,0,0,0-3.808-.747V7.533H50.217V10.1a16.237,16.237,0,0,0-2.8.459,26.338,26.338,0,1,0-22.3,42.108V57.75H31.1a21.125,21.125,0,0,0,1.528,3.695l-4.231,4.232,8.877,8.877L41.5,70.321A21.171,21.171,0,0,0,45.2,71.851v5.986H57.75V71.851a21.131,21.131,0,0,0,3.695-1.529l4.231,4.232,8.877-8.877-4.231-4.232a21.222,21.222,0,0,0,1.528-3.695Zm-26.364-45.2A13.7,13.7,0,0,1,64.988,29.079l-3.543,3.544a21.169,21.169,0,0,0-3.695-1.529V25.109H52.665A26.157,26.157,0,0,0,48.926,12.8,13.874,13.874,0,0,1,51.472,12.554ZM2.511,26.364A23.853,23.853,0,1,1,26.364,50.217,23.88,23.88,0,0,1,2.511,26.364ZM48.53,40.584a11.388,11.388,0,1,1-7.946,7.946A26.538,26.538,0,0,0,48.53,40.584ZM71,65.675,65.676,71l-3.815-3.816-.839.5a18.7,18.7,0,0,1-4.841,2l-.943.244v5.4H47.706v-5.4l-.942-.242a18.747,18.747,0,0,1-4.841-2l-.839-.5L37.27,71l-5.327-5.327,3.815-3.815-.495-.837a18.738,18.738,0,0,1-2-4.842l-.244-.943h-5.4V52.664a26.135,26.135,0,0,0,10.119-2.552,13.628,13.628,0,0,0-.075,1.361,13.81,13.81,0,1,0,13.81-13.81c-.457,0-.909.03-1.361.074a26.129,26.129,0,0,0,2.552-10.117h2.575v5.4l.942.242a18.747,18.747,0,0,1,4.841,2l.839.5,3.815-3.816L71,37.269l-3.815,3.815.495.837a18.737,18.737,0,0,1,2,4.842l.244.943h5.4v7.533h-5.4l-.244.942a18.737,18.737,0,0,1-2,4.842l-.495.837Z" transform="translate(0)" fill="#00b16e"/>
        <path id="Path_2596" data-name="Path 2596" d="M53.342,32A21.342,21.342,0,1,0,74.684,53.342,21.366,21.366,0,0,0,53.342,32ZM68.98,42.864a18.733,18.733,0,0,1,1.242,2.182l-7.623,4.4a10.021,10.021,0,0,0-1.268-2.167ZM57.108,34.89a18.824,18.824,0,0,1,10.3,5.98l-7.9,4.563a10.039,10.039,0,0,0-2.4-1.395Zm3.766,18.452a7.533,7.533,0,1,1-7.533-7.533A7.54,7.54,0,0,1,60.875,53.342ZM52.087,34.575c.417-.028.831-.064,1.255-.064s.839.036,1.255.064v8.812a9.862,9.862,0,0,0-1.255-.088,10.1,10.1,0,0,0-1.255.087Zm-2.511.315v9.148a10,10,0,0,0-2.4,1.395l-7.9-4.563A18.824,18.824,0,0,1,49.576,34.89ZM37.7,42.864l7.649,4.417a9.993,9.993,0,0,0-1.268,2.167l-7.623-4.4A18.837,18.837,0,0,1,37.7,42.864ZM34.511,53.342a18.725,18.725,0,0,1,.982-5.957l7.914,4.57a8.968,8.968,0,0,0,0,2.774L35.493,59.3A18.725,18.725,0,0,1,34.511,53.342ZM37.7,63.82a18.733,18.733,0,0,1-1.242-2.182l7.623-4.4A10.023,10.023,0,0,0,45.354,59.4Zm11.871,7.974a18.824,18.824,0,0,1-10.3-5.98l7.9-4.563a10.039,10.039,0,0,0,2.4,1.395Zm5.022.316c-.417.026-.831.063-1.255.063s-.839-.036-1.255-.064V63.3a9.862,9.862,0,0,0,1.255.088A10.1,10.1,0,0,0,54.6,63.3Zm2.511-.316V62.646a10,10,0,0,0,2.4-1.395l7.9,4.563A18.824,18.824,0,0,1,57.108,71.794ZM68.98,63.82,61.331,59.4A9.992,9.992,0,0,0,62.6,57.237l7.623,4.4A18.837,18.837,0,0,1,68.98,63.82Zm-5.7-9.091a10.1,10.1,0,0,0,.107-1.387,9.91,9.91,0,0,0-.108-1.387l7.914-4.57a18.574,18.574,0,0,1,0,11.914Z" transform="translate(-26.978 -26.978)" fill="#00b16e"/>
        <path id="Path_2597" data-name="Path 2597" d="M141.022,136a5.022,5.022,0,1,0,5.022,5.022A5.027,5.027,0,0,0,141.022,136Zm0,7.533a2.511,2.511,0,1,1,2.511-2.511A2.513,2.513,0,0,1,141.022,143.533Z" transform="translate(-114.658 -114.658)" fill="#00b16e"/>
      </g>
    </g>
  </g>
</svg>
