<svg id="google-2015" xmlns="http://www.w3.org/2000/svg" width="233.985" height="76.377" viewBox="0 0 233.985 76.377">
  <path id="Path_2572" data-name="Path 2572" d="M28.814,0H30.9A28.393,28.393,0,0,1,50.328,8.205c-1.884,1.924-3.808,3.769-5.653,5.693A21.234,21.234,0,0,0,9.028,26.7a21.855,21.855,0,0,0,4.75,16.881,21.013,21.013,0,0,0,15.311,7.538,20.382,20.382,0,0,0,15.233-5.221c3.141-2.709,4.593-6.831,5.064-10.836-6.517,0-13.034.039-19.551,0V26.971H57.277c1.413,8.676-.628,18.452-7.224,24.655a26.832,26.832,0,0,1-16.685,7.5A30.644,30.644,0,0,1,15.82,55.669,30.214,30.214,0,0,1,1.8,39.691a28.946,28.946,0,0,1-.2-19.59A29.889,29.889,0,0,1,12.4,5.771,30.821,30.821,0,0,1,28.814,0Z" transform="translate(0.003)" fill="#3780ff"/>
  <path id="Path_2573" data-name="Path 2573" d="M474.4,5.2h8.4V61.262c-2.787,0-5.614.039-8.4-.039.039-18.648,0-37.335,0-56.023Z" transform="translate(-288.154 -3.159)" fill="#38b137"/>
  <path id="Path_2574" data-name="Path 2574" d="M169.679,54.161a19.727,19.727,0,0,1,15.075,3.219,18.44,18.44,0,0,1,7.42,11.778,18.984,18.984,0,0,1-19.944,22.77,19.105,19.105,0,0,1-14.29-7.656,19.625,19.625,0,0,1-2.591-17.824,18.631,18.631,0,0,1,14.33-12.288m1.178,7.459a10.555,10.555,0,0,0-5.5,3.494,12.453,12.453,0,0,0,.628,16.214,10.454,10.454,0,0,0,9.344,2.905,10.573,10.573,0,0,0,7.3-5.378c2.591-4.672,1.845-11.11-2.12-14.761a10.592,10.592,0,0,0-9.658-2.473Z" transform="translate(-93.712 -32.686)" fill="#fa3913"/>
  <path id="Path_2575" data-name="Path 2575" d="M275.7,54.157a19.527,19.527,0,0,1,16.842,4.672c7.224,6.478,8.009,18.609,1.845,26.068a19.418,19.418,0,0,1-30.426-.628,19.814,19.814,0,0,1-2.473-18.216,18.646,18.646,0,0,1,14.212-11.9m1.178,7.459a10.737,10.737,0,0,0-5.5,3.455,12.47,12.47,0,0,0,.432,16.057,10.5,10.5,0,0,0,9.579,3.1,10.769,10.769,0,0,0,7.3-5.378c2.552-4.711,1.806-11.15-2.2-14.8A10.524,10.524,0,0,0,276.876,61.616Z" transform="translate(-158.116 -32.682)" fill="#fcbd06"/>
  <path id="Path_2576" data-name="Path 2576" d="M375.163,56.432c4.515-2.827,10.521-3.612,15.39-1.178a14.665,14.665,0,0,1,4,2.944c.039-1.06,0-2.159.039-3.259,2.63.039,5.261,0,7.93.039V89.606c-.039,5.221-1.374,10.757-5.143,14.565-4.122,4.2-10.443,5.5-16.135,4.633A18.256,18.256,0,0,1,367.508,97.85c2.355-1.139,4.829-2.041,7.263-3.1a10.8,10.8,0,0,0,7.656,6.6c3.494.628,7.538-.236,9.815-3.141,2.434-2.984,2.434-7.067,2.316-10.718a13.937,13.937,0,0,1-6.4,3.926c-5.457,1.531-11.464-.353-15.664-4.044a19.326,19.326,0,0,1,2.67-30.936m8.127,5.025a10.329,10.329,0,0,0-6.164,3.573,12.525,12.525,0,0,0,.039,15.743A10.272,10.272,0,0,0,386,84.384a9.975,9.975,0,0,0,7.5-4.986,13.251,13.251,0,0,0-1.335-14.84A9.661,9.661,0,0,0,383.29,61.457Z" transform="translate(-222.287 -32.68)" fill="#3780ff"/>
  <path id="Path_2577" data-name="Path 2577" d="M512.29,58.4a17.719,17.719,0,0,1,18.02-3.573c5.732,2.159,9.383,7.616,11.228,13.23-8.519,3.533-17,7.027-25.518,10.561a10.124,10.124,0,0,0,5.418,5.1A11,11,0,0,0,531.8,82.226a16.7,16.7,0,0,0,2.905-3.1c2.159,1.453,4.319,2.866,6.478,4.319a19.222,19.222,0,0,1-30.347,1.924c-6.517-7.538-5.889-20.179,1.453-26.971m4.2,7.263a11.209,11.209,0,0,0-1.845,6.6q8.539-3.533,17.078-7.106a7.062,7.062,0,0,0-5.535-3.887A10.032,10.032,0,0,0,516.491,65.659Z" transform="translate(-307.553 -32.642)" fill="#fa3913"/>
</svg>
