<svg id="mobile-mangd" xmlns="http://www.w3.org/2000/svg" width="73.334" height="73.334" viewBox="0 0 73.334 73.334">
  <path id="Path_2613" data-name="Path 2613" d="M14.111,52.222A6.111,6.111,0,1,0,8,46.111,6.118,6.118,0,0,0,14.111,52.222Zm0-9.778a3.667,3.667,0,1,1-3.667,3.667A3.671,3.671,0,0,1,14.111,42.444Z" transform="translate(-0.667 6.445)" fill="#00b16e"/>
  <path id="Path_2614" data-name="Path 2614" d="M3.222,51.111h1.86a11.453,11.453,0,0,0,.441,1.067L4.21,53.495a1.222,1.222,0,0,0,0,1.728l3.456,3.458a1.221,1.221,0,0,0,1.728,0l1.316-1.315a11,11,0,0,0,1.067.441v1.86A1.222,1.222,0,0,0,13,60.889h4.889a1.222,1.222,0,0,0,1.222-1.222v-1.86a11,11,0,0,0,1.067-.441l1.316,1.315a1.221,1.221,0,0,0,1.728,0l3.456-3.458a1.222,1.222,0,0,0,0-1.728l-1.315-1.316a11.129,11.129,0,0,0,.441-1.067h1.861a1.222,1.222,0,0,0,1.222-1.222V45a1.222,1.222,0,0,0-1.222-1.222h-1.86a11.452,11.452,0,0,0-.441-1.067l1.315-1.316a1.222,1.222,0,0,0,0-1.728l-3.456-3.458a1.221,1.221,0,0,0-1.728,0L20.18,37.524a11,11,0,0,0-1.067-.441v-1.86A1.222,1.222,0,0,0,17.89,34H13a1.222,1.222,0,0,0-1.222,1.222v1.86a11,11,0,0,0-1.067.441L9.395,36.21a1.221,1.221,0,0,0-1.728,0L4.21,39.668a1.222,1.222,0,0,0,0,1.728l1.315,1.316a11.3,11.3,0,0,0-.442,1.066H3.222A1.222,1.222,0,0,0,2,45v4.889A1.222,1.222,0,0,0,3.222,51.111Zm1.222-4.889H5.987a1.221,1.221,0,0,0,1.183-.917,8.512,8.512,0,0,1,.912-2.2,1.224,1.224,0,0,0-.188-1.485L6.8,40.53,8.53,38.8l1.091,1.09a1.221,1.221,0,0,0,1.486.188,8.5,8.5,0,0,1,2.2-.909,1.223,1.223,0,0,0,.917-1.183V36.444h2.444v1.542a1.223,1.223,0,0,0,.917,1.183,8.505,8.505,0,0,1,2.2.909,1.223,1.223,0,0,0,1.486-.188l1.091-1.09L24.09,40.53,23,41.621a1.222,1.222,0,0,0-.188,1.485,8.512,8.512,0,0,1,.912,2.2,1.223,1.223,0,0,0,1.183.917h1.54v2.444H24.9a1.221,1.221,0,0,0-1.183.917,8.512,8.512,0,0,1-.912,2.2A1.224,1.224,0,0,0,23,53.269l1.091,1.09-1.728,1.729L21.267,55a1.222,1.222,0,0,0-1.486-.188,8.5,8.5,0,0,1-2.2.909,1.222,1.222,0,0,0-.915,1.183v1.542H14.222V56.9a1.223,1.223,0,0,0-.917-1.183,8.5,8.5,0,0,1-2.2-.909A1.222,1.222,0,0,0,9.621,55l-1.091,1.09L6.8,54.359l1.091-1.09a1.222,1.222,0,0,0,.188-1.485,8.512,8.512,0,0,1-.912-2.2,1.22,1.22,0,0,0-1.182-.917H4.444Z" transform="translate(-2 5.112)" fill="#00b16e"/>
  <path id="Path_2615" data-name="Path 2615" d="M39.111,56.222A6.111,6.111,0,1,0,33,50.111,6.118,6.118,0,0,0,39.111,56.222Zm0-9.778a3.667,3.667,0,1,1-3.667,3.667A3.671,3.671,0,0,1,39.111,46.444Z" transform="translate(4.889 7.334)" fill="#00b16e"/>
  <path id="Path_2616" data-name="Path 2616" d="M39.111,38.222A6.111,6.111,0,1,0,33,32.111,6.118,6.118,0,0,0,39.111,38.222Zm0-9.778a3.667,3.667,0,1,1-3.667,3.667A3.671,3.671,0,0,1,39.111,28.444Z" transform="translate(4.889 3.334)" fill="#00b16e"/>
  <path id="Path_2617" data-name="Path 2617" d="M39.111,20.222A6.111,6.111,0,1,0,33,14.111,6.118,6.118,0,0,0,39.111,20.222Zm0-9.778a3.667,3.667,0,1,1-3.667,3.667A3.671,3.671,0,0,1,39.111,10.444Z" transform="translate(4.889 -0.667)" fill="#00b16e"/>
  <path id="Path_2618" data-name="Path 2618" d="M45,32.444h9.778A1.223,1.223,0,0,1,56,33.667v4.889h2.444V33.667A3.671,3.671,0,0,0,54.778,30H45Z" transform="translate(7.556 4.223)" fill="#00b16e"/>
  <rect id="Rectangle_421" data-name="Rectangle 421" width="2.178" height="2.178" transform="translate(63.896 44.063)" fill="#00b16e"/>
  <path id="Path_2619" data-name="Path 2619" d="M45,51.556h9.778a3.671,3.671,0,0,0,3.667-3.667V43H56v4.889a1.223,1.223,0,0,1-1.222,1.222H45Z" transform="translate(7.556 7.112)" fill="#00b16e"/>
  <path id="Path_2620" data-name="Path 2620" d="M20,29.889a3.671,3.671,0,0,0,3.667,3.667h9.778V31.111H23.667a1.223,1.223,0,0,1-1.222-1.222V25H20Z" transform="translate(2 3.112)" fill="#00b16e"/>
  <rect id="Rectangle_422" data-name="Rectangle 422" width="1.089" height="2.178" transform="translate(23.597 24.458)" fill="#00b16e"/>
  <path id="Path_2621" data-name="Path 2621" d="M22.444,15.667a1.223,1.223,0,0,1,1.222-1.222h9.778V12H23.667A3.671,3.671,0,0,0,20,15.667v4.889h2.444Z" transform="translate(2 0.222)" fill="#00b16e"/>
  <path id="Path_2622" data-name="Path 2622" d="M54.232,18.65a1.224,1.224,0,0,0,1.28-.116L60.4,14.867a1.222,1.222,0,0,0,0-1.956L55.511,9.245a1.222,1.222,0,0,0-1.956.978v2.444H45v2.444h8.556v2.444A1.224,1.224,0,0,0,54.232,18.65ZM56,12.667l1.629,1.222L56,15.111Z" transform="translate(7.556 -0.444)" fill="#00b16e"/>
  <rect id="Rectangle_423" data-name="Rectangle 423" width="5.446" height="2.178" transform="translate(29.043 57.133)" fill="#00b16e"/>
  <path id="Path_2623" data-name="Path 2623" d="M71.89,2H13.222A1.222,1.222,0,0,0,12,3.222V38.667h2.444V4.444H70.667V72.89H14.444V70.445H12v3.667a1.222,1.222,0,0,0,1.222,1.222H71.89a1.222,1.222,0,0,0,1.222-1.222V3.222A1.222,1.222,0,0,0,71.89,2Z" transform="translate(0.222 -2)" fill="#00b16e"/>
</svg>
