<svg xmlns="http://www.w3.org/2000/svg" width="82.825" height="75" viewBox="0 0 82.825 75">
  <g id="noun_integration_2619220" transform="translate(-11.296 -14)">
    <path id="Path_12001" data-name="Path 12001" d="M51.88,42a1.056,1.056,0,0,1,1.056,1.056v6.338H75.648A1.056,1.056,0,0,1,76.7,50.451v7.394a1.056,1.056,0,1,1-2.113,0V51.507H28.113v6.338a1.056,1.056,0,1,1-2.113,0V50.451a1.056,1.056,0,0,1,1.056-1.056H50.824V43.056A1.056,1.056,0,0,1,51.88,42Z" transform="translate(0.828 1.577)" fill="#00b16e" fill-rule="evenodd"/>
    <path id="Path_12002" data-name="Path 12002" d="M38.113,16.113H63.465V29.845H38.113Zm0,15.845v3.169H63.465V31.958ZM36,16.113A2.113,2.113,0,0,1,38.113,14H63.465a2.113,2.113,0,0,1,2.113,2.113V35.127a2.113,2.113,0,0,1-2.113,2.113H51.845v3.169H56.07a1.056,1.056,0,0,1,0,2.113H45.507a1.056,1.056,0,1,1,0-2.113h4.225V37.239H38.113A2.113,2.113,0,0,1,36,35.127Z" transform="translate(1.392)" fill="#00b16e" fill-rule="evenodd"/>
    <path id="Path_12003" data-name="Path 12003" d="M61.269,61.269H88.5v14.75H61.269Zm0,17.019v3.4H88.5v-3.4ZM59,61.269A2.269,2.269,0,0,1,61.269,59H88.5a2.269,2.269,0,0,1,2.269,2.269V81.692A2.269,2.269,0,0,1,88.5,83.961H76.019v3.4h4.538a1.135,1.135,0,0,1,0,2.269H69.211a1.135,1.135,0,0,1,0-2.269H73.75v-3.4H61.269A2.269,2.269,0,0,1,59,81.692Z" transform="translate(3.353 -0.634)" fill="#00b16e" fill-rule="evenodd"/>
    <path id="Path_12004" data-name="Path 12004" d="M16.269,61.269H43.5v14.75H16.269Zm0,17.019v3.4H43.5v-3.4ZM14,61.269A2.269,2.269,0,0,1,16.269,59H43.5a2.269,2.269,0,0,1,2.269,2.269V81.692A2.269,2.269,0,0,1,43.5,83.961H31.019v3.4h4.538a1.135,1.135,0,1,1,0,2.269H24.211a1.135,1.135,0,1,1,0-2.269H28.75v-3.4H16.269A2.269,2.269,0,0,1,14,81.692Z" transform="translate(-2.704 -0.634)" fill="#00b16e" fill-rule="evenodd"/>
  </g>
</svg>
