<svg xmlns="http://www.w3.org/2000/svg" width="84.743" height="84.744" viewBox="0 0 84.743 84.744">
  <g id="proxy" transform="translate(0.5 0.5)">
    <g id="Group_2556" data-name="Group 2556">
      <g id="Group_2552" data-name="Group 2552">
        <g id="Group_2547" data-name="Group 2547" transform="translate(14.782)">
          <path id="Path_11134" data-name="Path 11134" d="M118.629,91.428a14.035,14.035,0,0,1-14.02-14.02V61.148a.716.716,0,0,1,1.432,0v16.26a12.588,12.588,0,0,0,25.176,0V36.019a12.588,12.588,0,1,0-25.176,0v16.26a.716.716,0,1,1-1.432,0V36.019a14.02,14.02,0,0,1,28.039,0v41.39A14.035,14.035,0,0,1,118.629,91.428Z" transform="translate(-104.609 -21.999)" fill="#00b16e" stroke="#00b16e" stroke-width="1"/>
        </g>
        <g id="Group_2548" data-name="Group 2548" transform="translate(20.695 5.913)">
          <path id="Path_11135" data-name="Path 11135" d="M145.759,112.646a8.116,8.116,0,0,1-8.107-8.107V88.279a.716.716,0,0,1,1.432,0v16.26a6.675,6.675,0,0,0,13.35,0V63.15a6.675,6.675,0,1,0-13.35,0V79.41a.716.716,0,0,1-1.432,0V63.15a8.107,8.107,0,1,1,16.213,0v41.39A8.116,8.116,0,0,1,145.759,112.646Z" transform="translate(-137.652 -55.043)" fill="#00b16e" stroke="#00b16e" stroke-width="1"/>
        </g>
        <g id="Group_2549" data-name="Group 2549" transform="translate(41.389 29.564)">
          <path id="Path_11136" data-name="Path 11136" d="M268.8,188.648H254.021a.716.716,0,1,1,0-1.431H268.8a.716.716,0,1,1,0,1.431Z" transform="translate(-253.305 -187.217)" fill="#00b16e" stroke="#00b16e" stroke-width="1"/>
        </g>
        <g id="Group_2550" data-name="Group 2550" transform="translate(0 29.564)">
          <path id="Path_11137" data-name="Path 11137" d="M58.192,197.518H22.716A.716.716,0,0,1,22,196.8v-8.869a.716.716,0,0,1,.716-.716H58.192a.716.716,0,1,1,0,1.431H23.432v7.438H58.192a.716.716,0,1,1,0,1.432Z" transform="translate(-22 -187.217)" fill="#00b16e" stroke="#00b16e" stroke-width="1"/>
        </g>
        <g id="Group_2551" data-name="Group 2551" transform="translate(41.389 25.129)">
          <path id="Path_11138" data-name="Path 11138" d="M268.8,181.6a.716.716,0,0,1-.716-.716v-3.719H254.021a.716.716,0,0,1,0-1.432H268.8a.716.716,0,0,1,.716.716v3l9.917-7.437-9.917-7.438v7.438a.716.716,0,0,1-1.432,0V163.15a.716.716,0,0,1,1.145-.573l11.826,8.869a.716.716,0,0,1,0,1.145l-11.826,8.869A.713.713,0,0,1,268.8,181.6Z" transform="translate(-253.305 -162.434)" fill="#00b16e" stroke="#00b16e" stroke-width="1"/>
        </g>
      </g>
      <g id="Group_2553" data-name="Group 2553" transform="translate(57.261 64.418)">
        <path id="Path_11139" data-name="Path 11139" d="M367.767,401.325H342.716a.716.716,0,0,1-.716-.716V382.716a.716.716,0,0,1,.716-.716h25.052a.716.716,0,0,1,.716.716V400.61A.716.716,0,0,1,367.767,401.325Zm-24.336-1.431h23.62V383.432h-23.62Z" transform="translate(-342 -382)" fill="#00b16e" stroke="#00b16e" stroke-width="1"/>
      </g>
      <g id="Group_2554" data-name="Group 2554" transform="translate(60.839 46.524)">
        <path id="Path_11140" data-name="Path 11140" d="M380.61,301.325H362.716a.716.716,0,0,1-.716-.716v-8.947a9.663,9.663,0,1,1,19.325,0v8.947A.716.716,0,0,1,380.61,301.325Zm-17.178-1.432h16.462v-8.231a8.231,8.231,0,0,0-16.462,0Z" transform="translate(-362 -282)" fill="#00b16e" stroke="#00b16e" stroke-width="1"/>
      </g>
      <g id="Group_2555" data-name="Group 2555" transform="translate(66.207 69.786)">
        <path id="Path_11141" data-name="Path 11141" d="M396.295,420.589a4.295,4.295,0,1,1,4.294-4.295A4.3,4.3,0,0,1,396.295,420.589Zm0-7.158a2.863,2.863,0,1,0,2.863,2.863A2.866,2.866,0,0,0,396.295,413.432Z" transform="translate(-392 -412)" fill="#00b16e" stroke="#00b16e" stroke-width="1"/>
      </g>
    </g>
  </g>
</svg>
